<svg width="196" height="153" viewBox="0 0 196 153" fill="none" xmlns="http://www.w3.org/2000/svg">
<rect width="85.0013" height="21.5126" transform="matrix(0.7782 -0.628016 0.741991 0.67041 47.9996 98.5866)" fill="#D02030"/>
<path d="M156.908 22.9071L142.602 71.8163L98.8704 32.1401L156.908 22.9071Z" fill="#D02030"/>
<rect width="85.0013" height="21.5126" transform="matrix(0.7782 -0.628016 0.741991 0.67041 29.616 138.371)" fill="#93D0AA"/>
<path d="M138.525 62.6915L124.219 111.601L80.4867 71.9245L138.525 62.6915Z" fill="#93D0AA"/>
<rect width="85.0013" height="21.5126" transform="matrix(0.7782 -0.628016 0.741991 0.67041 19.5032 98.5866)" fill="#AF8F56"/>
<path d="M128.412 22.9071L114.106 71.8163L70.374 32.1401L128.412 22.9071Z" fill="#AF8F56"/>
<rect width="85.0013" height="21.5126" transform="matrix(0.7782 -0.628016 0.741991 0.67041 61.399 122.642)" fill="#0063A8"/>
<path d="M170.308 46.9628L156.002 95.872L112.27 56.1958L170.308 46.9628Z" fill="#0063A8"/>
<rect width="85.0013" height="21.5126" transform="matrix(0.7782 -0.628016 0.741991 0.67041 0 136.829)" fill="#79232F"/>
<path d="M108.909 61.1494L94.6027 110.059L50.8707 70.3824L108.909 61.1494Z" fill="#79232F"/>
</svg>
